<?xml version="1.0" standalone="no"?>
<!DOCTYPE svg PUBLIC "-//W3C//DTD SVG 20010904//EN"
 "http://www.w3.org/TR/2001/REC-SVG-20010904/DTD/svg10.dtd">
<svg version="1.0" xmlns="http://www.w3.org/2000/svg"
 width="1870.000000pt" height="1870.000000pt" viewBox="0 0 1870.000000 1870.000000"
 preserveAspectRatio="xMidYMid meet">
<metadata>
Created by potrace 1.11, written by Peter Selinger 2001-2013
</metadata>
<g transform="translate(0.000000,1870.000000) scale(0.100000,-0.100000)"
fill="#000000" stroke="none">
<path d="M0 9350 l0 -9350 9350 0 9350 0 0 9350 0 9350 -9350 0 -9350 0 0
-9350z m10611 4844 c156 -32 314 -111 416 -207 133 -127 185 -230 263 -522 89
-340 146 -635 260 -1350 78 -493 112 -681 136 -765 35 -122 98 -205 182 -241
108 -46 329 -51 608 -14 315 43 495 36 654 -27 242 -95 411 -330 464 -643 73
-435 -28 -771 -275 -918 -140 -83 -466 -157 -869 -197 -222 -22 -265 -32 -280
-61 -12 -22 13 -178 121 -764 163 -882 316 -1672 375 -1923 56 -244 68 -328
62 -466 -9 -195 -70 -334 -213 -484 -127 -134 -285 -227 -500 -295 -118 -37
-213 -55 -365 -67 -434 -36 -679 107 -832 486 -36 92 -111 378 -182 699 -116
521 -333 1630 -441 2255 -63 363 -76 411 -112 440 -24 19 -39 20 -272 20 -242
0 -484 -10 -1161 -50 -184 -10 -393 -22 -465 -25 -182 -8 -220 -14 -257 -38
-17 -12 -35 -35 -40 -52 -4 -16 -3 -358 3 -760 9 -553 9 -854 0 -1243 -20
-904 -33 -1114 -77 -1252 -86 -275 -352 -470 -705 -519 -285 -39 -570 -16
-781 63 -266 100 -407 278 -440 557 -12 99 -2 606 22 1144 12 261 14 956 4
1525 l-7 431 -30 25 c-33 27 -85 53 -231 112 -264 106 -442 318 -515 613 -44
182 -52 438 -16 574 25 96 70 177 141 254 77 83 176 148 317 206 208 86 256
121 264 197 5 41 -18 452 -37 677 -15 177 11 405 63 547 44 122 120 236 214
324 121 114 250 173 448 207 107 18 378 20 480 4 198 -32 369 -97 472 -180
151 -119 255 -315 288 -540 8 -53 21 -283 30 -511 9 -228 21 -434 27 -457 16
-64 26 -68 152 -66 256 6 1595 54 1644 59 62 7 67 14 77 120 5 46 2 99 -9 159
-21 120 -127 557 -214 880 -120 447 -207 839 -242 1095 -17 126 -15 303 4 378
87 331 414 543 911 592 219 21 344 20 466 -6z"/>
</g>
</svg>
